<?xml version="1.0" encoding="UTF-8" standalone="no"?>
<!DOCTYPE svg PUBLIC "-//W3C//DTD SVG 1.1//EN" "http://www.w3.org/Graphics/SVG/1.1/DTD/svg11.dtd">
<!-- Created with Vectornator (http://vectornator.io/) -->
<svg height="100%" stroke-miterlimit="10" style="fill-rule:nonzero;clip-rule:evenodd;stroke-linecap:round;stroke-linejoin:round;" version="1.1" viewBox="0 0 2732 2048" width="100%" xml:space="preserve" xmlns="http://www.w3.org/2000/svg" xmlns:vectornator="http://vectornator.io" xmlns:xlink="http://www.w3.org/1999/xlink">
<defs/>
<g id="Layer-1" vectornator:layerName="Layer 1">
<path d="M194.773 1096.74C194.773 929.286 328.619 793.541 493.725 793.541C658.832 793.541 792.677 929.286 792.677 1096.74C792.677 1264.19 658.832 1399.93 493.725 1399.93C328.619 1399.93 194.773 1264.19 194.773 1096.74Z" fill="#3785d9" fill-rule="nonzero" opacity="1" stroke="none" vectornator:layerName="Oval 1"/>
<g opacity="1" vectornator:layerName="Group 1">
<g opacity="1" vectornator:layerName="Group 1">
<g opacity="1" vectornator:layerName="Group 1">
<g opacity="1" vectornator:layerName="Group 1">
<path d="M231.747 1190.07C231.747 1091.19 308.151 1011.03 402.399 1011.03C496.647 1011.03 573.05 1091.19 573.05 1190.07C573.05 1288.94 496.647 1369.1 402.399 1369.1C308.151 1369.1 231.747 1288.94 231.747 1190.07Z" fill="#e2f0ff" fill-rule="nonzero" opacity="1" stroke="none" vectornator:layerName="Oval 2"/>
</g>
</g>
</g>
</g>
<path d="M425.39 1326.94L345.544 1269.03L248.318 1264.6L303.919 1182.45L307.658 1082.04L387.504 1139.94L484.73 1144.38L429.128 1226.53L425.39 1326.94Z" fill="#ffaa2c" fill-rule="nonzero" opacity="1" stroke="#e2f0ff" stroke-linecap="butt" stroke-linejoin="round" stroke-opacity="0" stroke-width="8.35746" vectornator:layerName="Star 1"/>
<path d="M636.63 974.015L432.655 1190.07L713.446 1098.83" fill="#3785d9" fill-rule="nonzero" opacity="1" stroke="#e2f0ff" stroke-linecap="butt" stroke-linejoin="round" stroke-width="10" vectornator:layerName="Curve 1"/>
<path d="M366.524 774.369C366.524 705.67 423.474 649.978 493.725 649.978C563.976 649.978 620.926 705.67 620.926 774.369C620.926 843.069 563.976 898.761 493.725 898.761C423.474 898.761 366.524 843.069 366.524 774.369Z" fill="#3785d9" fill-rule="nonzero" opacity="1" stroke="#e2f0ff" stroke-linecap="butt" stroke-linejoin="round" stroke-width="10" vectornator:layerName="Oval 2"/>
<path d="M278.714 687.034L490.764 774.369L680.979 665.575L472.325 577.74L281.626 683.541" fill="#ffaa2c" fill-rule="nonzero" opacity="1" stroke="#e2f0ff" stroke-linecap="butt" stroke-linejoin="round" stroke-opacity="0" stroke-width="8.35746" vectornator:layerName="Curve 2"/>
<path d="M320.537 691.829L314.53 772.055" fill="#ffaa2c" fill-rule="nonzero" opacity="1" stroke="#ffaa2c" stroke-linecap="butt" stroke-linejoin="round" stroke-width="8.35746" vectornator:layerName="Curve 3"/>
<path d="M314.53 786.852L306.965 781.2L309.855 772.055L319.205 772.055L322.094 781.2L314.53 786.852Z" fill="#ffaa2c" fill-rule="nonzero" opacity="1" stroke="#ffaa2c" stroke-linecap="butt" stroke-linejoin="round" stroke-width="8.35746" vectornator:layerName="Polygon 1"/>
<path d="M306.965 799.747L310.416 794.987L313.866 790.226L313.167 800.206L312.469 810.187L309.717 804.967L306.965 799.747Z" fill="#ffaa2c" fill-rule="nonzero" opacity="1" stroke="#ffaa2c" stroke-linecap="butt" stroke-linejoin="round" stroke-width="8.35746" vectornator:layerName="Star 2"/>
<g fill="#3395ff" opacity="1" stroke="none" vectornator:layerName="Text 1">
<path d="M885.675 931.317L909.702 931.317L909.702 1089.35L948.979 1089.35L948.979 1109.68L885.675 1109.68L885.675 931.317Z"/>
<path d="M1040.33 1069.36L1060.89 1069.36C1059.27 1097.47 1047.72 1111.53 1026.23 1111.53C1019.84 1111.53 1014.36 1110.33 1009.77 1107.94C1005.19 1105.56 1001.4 1101.86 998.395 1096.85C995.391 1091.85 993.177 1085.5 991.752 1077.79C990.328 1070.09 989.615 1060.93 989.615 1050.3C989.615 1029.2 992.561 1013.57 998.452 1003.4C1004.34 993.235 1013.45 988.152 1025.77 988.152C1049.72 988.152 1061.7 1009.25 1061.7 1051.46L1061.7 1054.23L1011.22 1054.23C1011.22 1079.8 1016.3 1092.58 1026.47 1092.58C1035.71 1092.58 1040.33 1084.84 1040.33 1069.36ZM1039.17 1038.29C1038.25 1025.73 1036.82 1017.49 1034.9 1013.57C1032.9 1009.18 1029.66 1006.98 1025.19 1006.98C1020.65 1006.98 1017.42 1009.18 1015.49 1013.57C1013.57 1017.49 1012.14 1025.73 1011.22 1038.29L1039.17 1038.29Z"/>
<path d="M1181 990.116L1181 1109.68L1158.94 1109.68L1158.94 1094.31C1155.78 1100.86 1152.62 1105.36 1149.47 1107.83C1146.31 1110.29 1142.15 1111.53 1136.99 1111.53C1127.06 1111.53 1119.78 1106.44 1115.16 1096.28C1110.54 1086.11 1108.23 1070.17 1108.23 1048.45C1108.23 1027.74 1110.54 1012.51 1115.16 1002.76C1119.78 993.023 1127.06 988.152 1136.99 988.152C1146.08 988.152 1153.39 993.312 1158.94 1003.63L1158.94 990.116L1181 990.116ZM1131.1 1049.38C1131.1 1065.09 1132.14 1076.06 1134.22 1082.3C1136.37 1088.54 1140.15 1091.66 1145.54 1091.66C1150.47 1091.66 1154.05 1088.42 1156.28 1081.95C1158.52 1075.02 1159.63 1064.36 1159.63 1049.95C1159.63 1035.48 1158.52 1024.77 1156.28 1017.84C1154.05 1011.37 1150.47 1008.14 1145.54 1008.14C1140.3 1008.14 1136.57 1011.22 1134.33 1017.38C1132.18 1023.08 1131.1 1033.74 1131.1 1049.38Z"/>
<path d="M1237.47 990.116L1259.53 990.116L1259.53 1005.02C1263.3 998.702 1267.04 994.274 1270.74 991.733C1274.43 989.191 1279.32 987.728 1285.41 987.343L1285.41 1010.45C1283.87 1010.22 1282.56 1010.1 1281.48 1010.1C1273.55 1010.1 1267.89 1012.14 1264.5 1016.22C1261.19 1020.23 1259.53 1027.24 1259.53 1037.25L1259.53 1109.68L1237.47 1109.68L1237.47 990.116Z"/>
<path d="M1332.51 990.116L1354.58 990.116L1354.58 1003.86C1360.89 993.389 1369.05 988.152 1379.07 988.152C1388.77 988.152 1395.7 991.964 1399.86 999.588C1402.17 1003.9 1403.32 1012.26 1403.32 1024.66L1403.32 1109.68L1381.26 1109.68L1381.15 1029.74C1381.15 1021.65 1380.18 1015.91 1378.26 1012.53C1376.33 1009.14 1373.02 1007.44 1368.32 1007.44C1365.78 1007.44 1363.64 1007.89 1361.91 1008.77C1360.18 1009.66 1358.77 1011.08 1357.69 1013.05C1356.62 1015.01 1355.83 1017.57 1355.33 1020.73C1354.83 1023.89 1354.58 1027.77 1354.58 1032.4L1354.58 1109.68L1332.51 1109.68L1332.51 990.116Z"/>
<path d="M1459.67 990.116L1481.85 990.116L1481.85 1109.68L1459.67 1109.68L1459.67 990.116ZM1470.07 939.288C1474.07 939.288 1477.54 940.751 1480.47 943.677C1483.39 946.604 1484.85 950.108 1484.85 954.189C1484.85 958.348 1483.39 961.891 1480.47 964.817C1477.54 967.744 1474 969.207 1469.84 969.207C1465.68 969.207 1462.14 967.744 1459.21 964.817C1456.36 961.968 1454.94 958.387 1454.94 954.074C1454.94 950.069 1456.4 946.604 1459.33 943.677C1462.48 940.751 1466.06 939.288 1470.07 939.288Z"/>
<path d="M1538.08 990.116L1560.15 990.116L1560.15 1003.86C1566.46 993.389 1574.63 988.152 1584.64 988.152C1594.34 988.152 1601.27 991.964 1605.43 999.588C1607.74 1003.9 1608.9 1012.26 1608.9 1024.66L1608.9 1109.68L1586.83 1109.68L1586.72 1029.74C1586.72 1021.65 1585.75 1015.91 1583.83 1012.53C1581.9 1009.14 1578.59 1007.44 1573.89 1007.44C1571.35 1007.44 1569.22 1007.89 1567.48 1008.77C1565.75 1009.66 1564.34 1011.08 1563.27 1013.05C1562.19 1015.01 1561.4 1017.57 1560.9 1020.73C1560.4 1023.89 1560.15 1027.77 1560.15 1032.4L1560.15 1109.68L1538.08 1109.68L1538.08 990.116Z"/>
<path d="M1711.57 990.116L1733.75 990.116L1733.75 1113.49C1733.75 1128.28 1732.28 1138.52 1729.36 1144.22C1723.96 1154.69 1713.14 1159.93 1696.89 1159.93C1686.19 1159.93 1677.8 1156.89 1671.71 1150.8C1665.55 1144.64 1662.47 1136.36 1662.47 1125.96L1662.59 1122.27L1683.96 1122.27C1683.96 1134.98 1688.69 1141.33 1698.17 1141.33C1703.33 1141.33 1706.83 1139.71 1708.68 1136.48C1710.6 1133.4 1711.57 1127.27 1711.57 1118.11L1711.57 1095.12C1706.87 1106.06 1699.67 1111.53 1689.96 1111.53C1679.95 1111.53 1672.58 1106.67 1667.84 1096.97C1663.11 1087.27 1660.74 1072.09 1660.74 1051.46C1660.74 1029.58 1663.01 1013.45 1667.55 1003.05C1672.02 993.119 1679.45 988.152 1689.85 988.152C1694.78 988.152 1698.78 989.345 1701.86 991.733C1704.94 994.12 1708.18 998.356 1711.57 1004.44L1711.57 990.116ZM1711.91 1050.99C1711.91 1022.42 1706.98 1008.14 1697.13 1008.14C1692.43 1008.14 1689 1011.35 1686.84 1017.78C1684.69 1024.21 1683.61 1034.51 1683.61 1048.68C1683.61 1063.7 1684.73 1074.75 1686.96 1081.84C1689.27 1088.38 1693.12 1091.66 1698.51 1091.66C1703.6 1091.66 1707.1 1088.73 1709.02 1082.88C1710.95 1077.41 1711.91 1066.78 1711.91 1050.99Z"/>
<path d="M1938.74 913.412L1938.74 1109.68L1916.67 1109.68L1916.67 1094.31C1913.52 1100.86 1910.36 1105.36 1907.2 1107.83C1904.04 1110.29 1899.85 1111.53 1894.61 1111.53C1884.75 1111.53 1877.51 1106.46 1872.89 1096.33C1868.27 1086.21 1865.96 1070.29 1865.96 1048.57C1865.96 1038.09 1866.54 1029.05 1867.7 1021.42C1868.85 1013.8 1870.6 1007.52 1872.95 1002.59C1875.3 997.663 1878.32 994.024 1882.02 991.675C1885.72 989.326 1890.11 988.152 1895.19 988.152C1900.04 988.152 1904.04 989.307 1907.2 991.617C1908.74 992.696 1910.32 994.236 1911.94 996.238C1913.56 998.24 1915.13 1000.7 1916.67 1003.63L1916.67 913.412L1938.74 913.412ZM1888.83 1049.38C1888.83 1065.09 1889.87 1076.06 1891.95 1082.3C1894.11 1088.54 1897.88 1091.66 1903.27 1091.66C1908.2 1091.66 1911.78 1088.42 1914.02 1081.95C1916.25 1075.02 1917.37 1064.36 1917.37 1049.95C1917.37 1035.48 1916.25 1024.77 1914.02 1017.84C1911.78 1011.37 1908.2 1008.14 1903.27 1008.14C1898.04 1008.14 1894.3 1011.22 1892.07 1017.38C1889.91 1023.08 1888.83 1033.74 1888.83 1049.38Z"/>
<path d="M2041.41 1069.36L2061.97 1069.36C2060.35 1097.47 2048.8 1111.53 2027.32 1111.53C2020.92 1111.53 2015.44 1110.33 2010.85 1107.94C2006.27 1105.56 2002.48 1101.86 1999.48 1096.85C1996.47 1091.85 1994.26 1085.5 1992.83 1077.79C1991.41 1070.09 1990.7 1060.93 1990.7 1050.3C1990.7 1029.2 1993.64 1013.57 1999.53 1003.4C2005.42 993.235 2014.53 988.152 2026.85 988.152C2050.8 988.152 2062.78 1009.25 2062.78 1051.46L2062.78 1054.23L2012.3 1054.23C2012.3 1079.8 2017.38 1092.58 2027.55 1092.58C2036.79 1092.58 2041.41 1084.84 2041.41 1069.36ZM2040.25 1038.29C2039.33 1025.73 2037.9 1017.49 2035.98 1013.57C2033.98 1009.18 2030.74 1006.98 2026.28 1006.98C2021.73 1006.98 2018.5 1009.18 2016.57 1013.57C2014.65 1017.49 2013.22 1025.73 2012.3 1038.29L2040.25 1038.29Z"/>
<path d="M2160.02 992.541L2160.02 1013.22C2154.63 1009.21 2148.97 1007.21 2143.04 1007.21C2141.04 1007.21 2139.19 1007.56 2137.49 1008.25C2135.8 1008.95 2134.32 1009.89 2133.05 1011.08C2131.78 1012.28 2130.78 1013.7 2130.04 1015.36C2129.31 1017.01 2128.95 1018.76 2128.95 1020.61C2128.95 1026.31 2134.11 1033.09 2144.43 1040.94C2148.58 1044.18 2152.05 1047.18 2154.82 1049.95C2157.59 1052.73 2159.71 1055.34 2161.18 1057.81C2164.18 1062.66 2165.68 1068.78 2165.68 1076.18C2165.68 1086.88 2162.56 1095.47 2156.32 1101.94C2150.16 1108.33 2141.88 1111.53 2131.49 1111.53C2125.1 1111.53 2118.63 1109.64 2112.08 1105.86L2112.08 1084.49C2118.47 1089.27 2124.52 1091.66 2130.22 1091.66C2140.31 1091.66 2145.35 1086.69 2145.35 1076.75C2145.35 1073.06 2144.43 1069.86 2142.58 1067.17C2141.73 1065.86 2140.38 1064.34 2138.53 1062.6C2136.69 1060.87 2134.41 1058.93 2131.72 1056.77C2122.4 1049.53 2116.09 1043.45 2112.77 1038.52C2109.54 1033.43 2107.92 1027.31 2107.92 1020.15C2107.92 1010.52 2110.89 1002.63 2116.82 996.469C2122.82 990.385 2130.64 987.343 2140.27 987.343C2147.04 987.343 2153.63 989.076 2160.02 992.541Z"/>
<path d="M2218.56 956.615L2240.63 956.615L2240.63 990.116L2252.64 990.116L2252.64 1007.67L2240.63 1007.67L2240.63 1109.68L2218.56 1109.68L2218.56 1007.67L2206.43 1007.67L2206.43 990.116L2218.56 990.116L2218.56 956.615Z"/>
<path d="M2299.86 990.116L2322.04 990.116L2322.04 1109.68L2299.86 1109.68L2299.86 990.116ZM2310.26 939.288C2314.26 939.288 2317.73 940.751 2320.66 943.677C2323.58 946.604 2325.04 950.108 2325.04 954.189C2325.04 958.348 2323.58 961.891 2320.66 964.817C2317.73 967.744 2314.19 969.207 2310.03 969.207C2305.87 969.207 2302.33 967.744 2299.4 964.817C2296.55 961.968 2295.13 958.387 2295.13 954.074C2295.13 950.069 2296.59 946.604 2299.52 943.677C2302.67 940.751 2306.25 939.288 2310.26 939.288Z"/>
<path d="M2378.27 990.116L2400.34 990.116L2400.34 1003.86C2406.65 993.389 2414.82 988.152 2424.83 988.152C2434.53 988.152 2441.46 991.964 2445.62 999.588C2447.93 1003.9 2449.09 1012.26 2449.09 1024.66L2449.09 1109.68L2427.02 1109.68L2426.91 1029.74C2426.91 1021.65 2425.94 1015.91 2424.02 1012.53C2422.09 1009.14 2418.78 1007.44 2414.08 1007.44C2411.54 1007.44 2409.41 1007.89 2407.67 1008.77C2405.94 1009.66 2404.53 1011.08 2403.46 1013.05C2402.38 1015.01 2401.59 1017.57 2401.09 1020.73C2400.59 1023.89 2400.34 1027.77 2400.34 1032.4L2400.34 1109.68L2378.27 1109.68L2378.27 990.116Z"/>
<path d="M2492.73 990.116L2517.68 990.116L2535.24 1073.52L2555.8 990.116L2578.21 990.116L2529.35 1158.66L2506.13 1158.66L2524.49 1100.09L2492.73 990.116Z"/>
</g>
</g>
</svg>
